<?xml version="1.0" encoding="utf-8"?>
<!-- Generator: Adobe Illustrator 18.1.1, SVG Export Plug-In . SVG Version: 6.00 Build 0)  -->
<svg version="1.1" id="Layer_1" xmlns="http://www.w3.org/2000/svg" xmlns:xlink="http://www.w3.org/1999/xlink" x="0px" y="0px"
	 viewBox="0 341 640 108" enable-background="new 0 341 640 108" xml:space="preserve">
<image display="none" overflow="visible" enable-background="new    " width="236" height="66" xlink:href="F4AC188DB27D110B.png"  transform="matrix(1.2674 0 0 1.2674 4.8106 354.8803)">
</image>
<path fill="none" stroke="#27AAE1" stroke-width="5" stroke-miterlimit="10" d="M35.8,432.8c4.5,1.3,14.1,0.9,17.8-2
	c7.1-5.6,9.2-8.2,11.7-14.8c1.9-4.8,2.1-8.2,2.7-11.8c0.8-4.3,2.3-8,3.6-13c1.2-4.3,1.9-12.3,0.7-16.1c-2.1-7-7.1-12.8-12.5-15
	c-4.7-1.9-14.9-1.3-20.4,1c-4.6,2-10.2,9.9-12,14.5c-1.1,2.8-1.6,9.2-2.1,12.1c-0.6,3.4-3.8,9.6-4.6,12.9
	c-1.3,5.4-0.7,15.7,1.7,20.9C24.1,425.5,31.6,431.5,35.8,432.8z"/>
<g id="Layer_2">
</g>
<path fill="none" stroke="#F15A29" stroke-width="5" stroke-miterlimit="10" d="M69.8,426.3c3.8-2.9,9-10.9,8.8-15.6
	c-0.3-9-1.3-12.2-5-18.2c-2.8-4.4-5.4-6.4-8-9.1c-3.1-3.2-5.2-6.6-8.4-10.6c-2.8-3.5-8.9-8.8-12.7-10c-6.9-2.3-14.6-1.7-19.6,1.5
	c-4.3,2.7-9.8,11.3-11.1,17.2c-1.1,4.9,2,14.1,4.8,18.2c1.7,2.5,6.4,6.6,8.6,8.8c2.4,2.5,5.5,8.8,7.8,11.3
	c3.6,4.2,12.3,9.7,17.9,10.9C57.2,431.6,66.4,428.9,69.8,426.3z"/>
<path fill="none" stroke="#2B3990" stroke-width="5" stroke-miterlimit="10" d="M52.7,433.8c4.6-0.7,13.1-5.3,15.2-9.5
	c4-8.1,4.7-11.3,4.2-18.4c-0.4-5.2-1.7-8.3-2.7-11.8c-1.1-4.2-1.4-8.2-2.3-13.3c-0.8-4.4-3.6-11.9-6.4-14.9c-5-5.3-12-8.4-17.9-8
	c-5.1,0.3-14,5.2-18,9.7c-3.3,3.8-5,13.3-4.5,18.3c0.3,3,2.5,8.9,3.3,11.8c0.9,3.4,0.7,10.3,1.4,13.7c1.2,5.4,6.1,14.5,10.5,18.1
	C39,432.4,48.3,434.4,52.7,433.8z"/>
<path fill="none" stroke="#F9ED32" stroke-width="5" stroke-miterlimit="10" d="M19.9,424.1c3.3,3.3,12,7.4,16.6,6.6
	c8.9-1.5,11.9-2.9,17.4-7.5c3.9-3.3,5.6-6.2,8-9.1c2.7-3.4,5.8-6,9.4-9.7c3.1-3.2,7.5-10,8.2-13.9c1.4-7.2-0.3-14.7-4.1-19.2
	c-3.2-3.9-12.5-8.2-18.5-8.8c-5.1-0.5-13.7,3.8-17.5,7.2c-2.3,2-5.7,7.3-7.6,9.6c-2.2,2.7-7.9,6.6-10.2,9.2
	c-3.6,4.1-8,13.5-8.4,19.2C12.9,412.2,16.7,421,19.9,424.1z"/>
<path fill="none" stroke="#EC008C" stroke-width="5" stroke-miterlimit="10" d="M13.5,377.8c-2.4,4-4.2,13.5-2.3,17.8
	c3.7,8.2,5.8,10.8,11.5,14.9c4.2,3,7.5,3.9,10.8,5.4c4,1.8,7.3,4.1,11.7,6.6c3.8,2.2,11.5,4.8,15.5,4.5c7.3-0.5,14.1-4,17.6-8.8
	c3-4.1,4.8-14.2,3.8-20.1c-0.8-5-7.1-12.3-11.3-15.1c-2.5-1.7-8.5-3.7-11.2-5c-3.2-1.4-8.4-6-11.5-7.6c-4.9-2.5-15.1-4.4-20.7-3.3
	C23.3,368.1,15.8,374,13.5,377.8z"/>
<rect x="93.8" y="359.8" fill="none" width="509.2" height="73"/>
<text transform="matrix(1.19 0 0 1 100.8476 425.1709)" font-family="'Helvetica'" font-size="96.1638" letter-spacing="8.4">cmplx.in</text>
<path fill="none" stroke="#00A79D" stroke-width="5" stroke-miterlimit="10" d="M84.4,388.3c-0.9-4.6-5.8-12.8-10.2-14.7
	c-8.2-3.6-11.5-4.2-18.6-3.4c-5.1,0.6-8.2,2.1-11.7,3.2c-4.2,1.3-8.2,1.8-13.2,2.9c-4.3,1-11.7,4.2-14.5,7
	c-5.1,5.2-7.8,12.4-7.2,18.3c0.5,5,5.9,13.7,10.6,17.5c3.9,3.1,13.5,4.4,18.5,3.6c3-0.4,8.8-2.9,11.7-3.8c3.3-1.1,10.3-1.1,13.6-2.1
	c5.3-1.5,14.1-6.8,17.6-11.4C83.6,402.1,85.3,392.6,84.4,388.3z"/>
</svg>
