<?xml version="1.0" encoding="utf-8"?>
<!-- Generator: Adobe Illustrator 18.1.1, SVG Export Plug-In . SVG Version: 6.00 Build 0)  -->
<svg version="1.1" id="Layer_1" xmlns="http://www.w3.org/2000/svg" xmlns:xlink="http://www.w3.org/1999/xlink" x="0px" y="0px"
	 viewBox="0 85 619 607" enable-background="new 0 85 619 607" xml:space="preserve">
<g>
	<g id="Layer_2">
	</g>
	<path fill="none" stroke="#27AAE1" stroke-width="20" stroke-miterlimit="10" d="M227.5,671.6c34.7,10.2,108,7.1,136.5-15.3
		c54.5-42.8,70.3-62.7,90.1-113.6c14.7-36.7,15.8-62.7,20.9-90.6c6.1-33.2,17.8-61.6,28-99.9c9.2-33.2,14.2-94.8,5.1-123.8
		c-15.8-53-54.5-97.8-96.3-114.6c-36.2-14.7-114.6-10.2-156.9,7.6c-35.7,15.3-78.4,75.9-92.2,111.6c-8.1,21.4-12.2,70.3-16.3,92.7
		c-4.6,26.4-29.5,73.3-35.7,99.4c-9.7,41.3-5.6,120.2,12.7,160.5C137.3,616.6,195.4,662,227.5,671.6z"/>
	<path fill="none" stroke="#F15A29" stroke-width="20" stroke-miterlimit="10" d="M221.4,572.8c27.5,32.1,94.3,74.9,137.5,83.5
		c32.5,6.7,103.4-13.6,129.9-34.1c29-21.9,68.8-83.5,67.7-119.7c-2.5-69.3-9.7-93.8-38.8-139.5c-21.4-33.7-41.8-49.4-61.1-69.8
		c-23.4-24.4-39.8-50.4-64.2-81.5c-21.4-27-68.2-67.2-97.3-76.9c-53-17.8-112.1-12.7-150.2,11.2c-33.2,20.9-75.4,86.6-85.5,131.9
		C27,403,165,425,438,444"/>
	<path fill="none" stroke="#2B3990" stroke-width="20" stroke-miterlimit="10" d="M305.6,519c36-38,138.4-295,114-360.3
		c-18.9-48.4-92.4-64.7-137.6-61.6c-39.3,2.5-107.5,40.3-138,74.9c-25.4,29-38.2,102.4-34.7,140.6c2,22.9,19.3,68.2,25.4,90.6
		c7.1,25.9,5.1,78.9,10.7,105c9.2,41.3,46.9,111.1,81,139c25.5,22,97.3,37.7,131,32.6c35.7-5.6,100.4-40.8,116.7-72.8
		c30.5-62.1,36.2-87.1,32.6-141.6"/>
	<path fill="none" stroke="#F9ED32" stroke-width="20" stroke-miterlimit="10" d="M118,332.4C90,364,56.4,435.8,53.8,480.1
		c-2,33.7,27.6,101.4,51.5,124.8c25.4,25.4,92.2,57.1,127.9,51c68.2-11.7,91.6-21.9,133.4-57.6c30-25.4,43.3-47.9,61.1-69.8
		c20.9-26.4,44.9-46.4,71.8-74.4c23.4-24.4,57.6-76.9,63.2-107c10.7-55-2.5-112.6-31.6-147.7c-25.4-30-96.8-62.7-142.6-66.7
		C316.1,99.4-70,315,441,348"/>
	<path fill="none" stroke="#EC008C" stroke-width="20" stroke-miterlimit="10" d="M56.4,249.8c-18.3,31-32.1,103.4-17.3,136.5
		c28.5,63.2,44.3,83,88.6,114.6c32.1,22.9,57.6,30,83,41.8c30.5,13.7,56,31.6,90.1,51c29.5,16.8,88.6,36.7,119.2,34.7
		c56-3.6,108.5-30.5,135-67.2c22.9-31.6,37.2-109,29.5-154.3c-6.1-38.2-54.5-94.3-86.6-116.2c-18.8-12.7-65.2-28.5-86-38.2
		c-24.4-10.7-64.2-46.4-88.1-58.6c-37.7-19.3-115.6-34.2-159-25.4C131.7,175.5,73.6,220.8,56.4,249.8z"/>
	<path fill="none" stroke="#00A79D" stroke-width="20" stroke-miterlimit="10" d="M131,222C35.7,314.6,17.1,387.4,21.8,432.7
		c4.1,38.8,45.4,105.5,81.5,134.5c30,23.9,103.9,33.7,142.1,28c22.9-3.1,67.7-22.4,89.6-29.5c25.4-8.1,78.9-8.6,104.5-15.8
		c40.8-11.2,108.5-52,135-87.6c20.4-26.5,33.2-98.9,26.5-131.9c-7.1-35.7-44.9-98.4-78.4-113.1c-63.2-28-88.6-32.1-142.6-25.9
		C244.6,198,228,501.4,201,510"/>
</g>
</svg>
